<svg xmlns:dc="http://purl.org/dc/elements/1.1/" xmlns:cc="http://creativecommons.org/ns#" xmlns:rdf="http://www.w3.org/1999/02/22-rdf-syntax-ns#" xmlns:svg="http://www.w3.org/2000/svg" xmlns="http://www.w3.org/2000/svg" height="746.3759765625" width="746.3759765625" xml:space="preserve" version="1.1"><rect id="backgroundrect" width="100%" height="100%" x="0" y="0" fill="none" stroke="none"/><metadata id="metadata8"><rdf:RDF><cc:Work rdf:about=""><dc:format>image/svg+xml</dc:format><dc:type rdf:resource="http://purl.org/dc/dcmitype/StillImage"/></cc:Work></rdf:RDF></metadata><defs id="defs6"/><g class="currentLayer" style=""><title>Layer 1</title><path id="path14" style="fill:#ec1e27;fill-opacity:1;fill-rule:nonzero;stroke:none" d="M746.3759924624688,746.37598 H0 V-0.000012462468816920591 H746.3759924624688 V746.37598 " stroke-width="0" class="selected"/><path id="path16" style="fill:#ffffff;fill-opacity:1;fill-rule:nonzero;stroke:none" d="m194.51866470225397,102.18265317227156 c29.219999704911924,0 58.43466607654437,11.139999887498933 80.72266585146144,33.44133299561469 c2.515999974591321,2.5213333078707936 99.61599899399405,100.33466565340301 99.61599899399405,100.33466565340301 l100.76533231572044,-100.30666565368577 c22.083999776977237,-21.554666448989558 50.75999948738293,-32.3293330068446 79.43733253110848,-32.3293330068446 c29.094666372844312,0 58.20666607884691,11.098666554583017 80.42266585449109,33.31199966358747 c44.42533288468904,44.42399955136917 44.42533288468904,116.45199882396999 0.00799999991920929,160.87599837533915 c-2.5106666413118477,2.4999999747529023 -260.63333070123923,259.9306640416687 -260.63333070123923,259.9306640416687 c0,0 -258.5599973888442,-257.8586640625935 -261.05786403028526,-260.3746640371848 c-44.59533288297224,-44.582666216433495 -44.59533288297224,-116.85599881989006 0.005199999947486038,-161.44266503628316 c22.275333108378327,-22.301333108115756 51.50466614652933,-33.44133299561469 80.71399918488231,-33.44133299561469 " stroke-width="0" class=""/><path id="path18" style="fill:#ec1e27;fill-opacity:1;fill-rule:evenodd;stroke:none" d="m373.74399622561947,245.27598506052828 c0.1453333318656354,-0.02266666643775965 0.16133333170405395,0.0813333325119611 0.16133333170405395,0.1653333316636586 c6.951999929792871,13.814666527154571 14.245333189472005,27.657333054026378 21.481333116396808,41.92533290993614 c0.8306666582778978,1.6853333163134232 2.1959999778229493,5.162666614529726 3.411999965542761,5.626666609843866 c2.493333308153561,0.9506666570660369 6.298666603057446,-1.6693333164750046 8.16266658423321,-2.7333333057298397 c7.055999928742592,-4.061333292318582 14.407999854495927,-8.375999915412123 21.129333119951596,-11.925333212901311 c-4.463999954918782,20.921333122052154 -9.470666571023928,42.766666234772984 -14.137333190562678,63.89333268808484 c-0.6733333265334484,3.067999969016762 -1.6386666501180356,6.315999936215732 -1.8693333144552369,9.183999907252261 c-0.19999999798023219,2.32266664321043 0.06933333263314716,4.5919999536261304 1.1653333215648196,4.945333283391208 c1.7626666488657798,0.5866666607420145 4.5106666211141695,-1.4186666523397804 5.45199994494113,-2.206666644381895 c1.3479999863867649,-1.0773333224535173 2.6679999730562978,-2.810666638282196 3.9346666269311013,-4.261333290298814 c8.559999913553938,-9.845333233906898 17.641333155176348,-20.60933312520299 26.39866640007078,-30.158666362099144 c1.7893333152631439,4.742666618771239 3.5333332976507688,9.606666569650486 5.291999946556944,14.83866651681336 c1.1346666552078506,3.3293332997109317 1.6519999833167178,5.935999940053292 5.442666611702052,6.465333268040973 c3.4506666318189394,0.4706666619134798 6.581333266869507,-0.658666660014898 9.885333233502942,-1.3626666529053153 c8.582666579991697,-1.8413333147380044 19.05599980755652,-4.471999954837991 27.26399972466525,-5.9693332730499975 c-3.3666666326672416,11.810666547392644 -6.9253332633955065,25.57066640843262 -10.3946665616926,38.501332944514566 c-0.5039999949101851,1.902666647451942 -1.4213333189795168,4.053333292399372 -0.8653333245944713,5.795999941467128 c0.39199999604125507,1.1146666554098272 2.2213333109004454,2.422666642200546 3.423999965421575,3.082666635535312 c4.329333289612093,2.2759999770150423 9.507999903980238,3.5319999643309004 13.967999858939416,5.42133327858416 c0.5759999941830687,-0.10799999890932539 0.25733333073456544,0.34799999648560404 0,0.34799999648560404 c-20.182666462845166,16.327999835106155 -41.59733291324856,34.246666320815095 -62.52133270194045,50.94399948552474 c-1.950666646967198,1.5479999843669972 -3.3279999663910638,2.8359999713596924 -3.234666634000289,5.449333278301393 c0.057333332754333236,1.9546666469268026 1.4279999855788579,4.117333291753046 2.2106666443414995,6.134666604713655 c2.199999977782554,5.795999941467128 4.485333288036674,12.469333207407542 6.633333266344367,18.067999817534176 c-19.406666470681866,-3.478666631536172 -38.47733294475693,-6.629333266384763 -57.91866608175537,-10.234666563308416 c-2.6959999727735298,-0.49333332835123944 -5.86266660746054,-1.1599999882853467 -8.606666579749325,-1.6159999836802759 c-2.7666666387265453,-0.45866666203466583 -8.46799991448303,-0.45866666203466583 -10.807999890851749,0.09866666567024789 c-0.7399999925268591,0.179999998182209 -2.803999971682855,0.41733332911875115 -4.087999958715946,0.670666659893712 c-20.71333312415271,4.1253332916722565 -41.88399957702023,7.911999920097986 -62.52666603521992,11.923999879581444 c1.801333315141958,-4.715999952373875 4.246666623780263,-10.710666558501368 6.298666603057446,-16.013333171617255 c1.422666652299385,-3.6319999633210163 3.7439999621899465,-8.550666580314859 1.198666654561525,-12.773333204337495 c-1.4719999851345087,-2.4066666423621275 -5.287999946597338,-4.737333285491767 -7.8346665875456285,-6.822666597765654 c-16.278666502271033,-13.18799986681651 -32.242666341053166,-26.329333067437634 -48.39999951121619,-39.51466626761441 c-2.6493333065781424,-2.1719999780653216 -5.306666613075493,-4.290666623335914 -7.667999922562101,-6.662666599381468 c2.8626666377570564,-1.0853333223727268 5.599999943446501,-2.443999975318437 8.69199991222089,-3.727999962351528 c2.591999973823809,-1.08266665573299 6.90799993023722,-1.9839999799639034 8.001333252529156,-4.266666623578287 c1.5813333173637023,-3.2559999671181803 -0.6266666603380608,-8.193333250590179 -1.5293333178888422,-11.585333216334917 c-2.9173333038716533,-11.002666555552507 -6.338666602653492,-22.891999768817374 -9.031999908787284,-33.221332997836434 c7.761333254952877,1.6626666498756637 17.81999982003869,3.909333293853605 26.402666400030387,5.625333276523997 c4.80933328476465,0.9773333234634013 11.303999885842723,2.759999972127204 14.326666521983967,-0.8599999913149984 c0.8826666577527581,-1.069333322534308 1.2506666540363853,-2.865333304396793 1.8773333143744462,-4.427999955282341 c1.7319999825088108,-4.329333289612093 3.642666629879962,-8.937333243076642 5.434666611782842,-13.27733319924768 c0.23199999765706936,-0.6666666599341073 0.6039999939003012,0.3746666628829683 0.8666666579143395,0.6733333265334484 c7.629333256285924,9.021333242228339 14.74933318438219,18.343999814746898 23.34533309757257,26.918666394819383 c1.2533333206761217,1.2759999871138814 2.659999973137088,2.765333305406677 4.415999955403526,4.265333290258418 c1.3426666531072922,1.1279999886085097 3.7759999618667837,3.4399999652599935 5.618666609924657,3.0626666357372887 c2.7319999724099713,-0.5493333277857044 1.6919999829127643,-6.84799993084315 1.2039999878409977,-9.367999905394075 c-4.434666621881681,-22.753333103551082 -9.449333237906037,-46.093332867844175 -13.970666525579153,-68.65866597329385 c0.08533333247156574,-0.534666661267154 1.1159999887296954,0.24266666421601507 1.51599998469016,0.49333332835123944 c3.53999996425011,2.361333309486608 7.183999927449941,5.03999994910185 11.087999888024072,7.51999992405673 c2.069333312435469,1.3199999866695324 4.053333292399372,2.581333307264863 6.469333268000578,4.081333292116605 c2.1333333117891433,1.3253333199490052 5.497333277816648,3.8173332947826983 8.182666584031233,3.242666633919498 c1.7679999821452526,-0.39733332932072796 3.045333302579002,-2.7333333057298397 4.08533329207621,-4.965333283189231 c6.806666597927235,-14.298666522266732 14.24933318943161,-28.926666374540915 20.963999788287936,-42.75199956825443 " stroke-width="0" class=""/></g></svg>