<?xml version="1.0" encoding="UTF-8" standalone="no"?>
<svg
   xmlns:dc="http://purl.org/dc/elements/1.1/"
   xmlns:cc="http://creativecommons.org/ns#"
   xmlns:rdf="http://www.w3.org/1999/02/22-rdf-syntax-ns#"
   xmlns:svg="http://www.w3.org/2000/svg"
   xmlns="http://www.w3.org/2000/svg"
   viewBox="0 0 1066.6667 800"
   height="800"
   width="1066.6667"
   xml:space="preserve"
   id="svg2"
   version="1.1"><metadata
     id="metadata8"><rdf:RDF><cc:Work
         rdf:about=""><dc:format>image/svg+xml</dc:format><dc:type
           rdf:resource="http://purl.org/dc/dcmitype/StillImage" /></cc:Work></rdf:RDF></metadata><defs
     id="defs6" /><g
     transform="matrix(1.3333333,0,0,-1.3333333,0,800)"
     id="g10"><g
       transform="scale(0.1)"
       id="g12"><path
         id="path14"
         style="fill:#ab1e27;fill-opacity:1;fill-rule:nonzero;stroke:none"
         d="M 863.789,1556.08 H 651.793 v -474.84 h 211.996 c 74.18,0 136.188,7.78 186.011,23.32 49.79,15.55 87.77,40.99 113.92,76.3 26.14,35.34 39.21,81.61 39.21,138.88 0,68.5 -20.12,124.32 -60.4,167.46 -45.24,45.92 -138.16,68.88 -278.741,68.88 z M 940.082,843.832 H 651.793 V 403.961 c 0,-62.902 -14.84,-110.57 -44.512,-143.059 -29.668,-32.5 -67.129,-48.773 -112.343,-48.773 -47.36,0 -85.524,16.082 -114.489,48.223 -28.969,32.14 -43.453,79.308 -43.453,141.507 V 1599.54 c 0,69.24 15.895,118.68 47.711,148.39 31.785,29.67 82.289,44.51 151.566,44.51 h 403.809 c 119.398,0 211.268,-9.2 275.578,-27.56 63.6,-17.68 118.52,-47.01 164.83,-87.99 46.27,-40.98 81.42,-91.13 105.45,-150.47 24,-59.38 36.02,-126.16 36.02,-200.34 0,-158.3 -48.74,-278.23 -146.25,-359.85 -97.5,-81.609 -242.73,-122.398 -435.628,-122.398" /><path
         id="path16"
         style="fill:#ab1e27;fill-opacity:1;fill-rule:nonzero;stroke:none"
         d="M 2054.04,1224.35 V 388.082 c 0,-57.973 -13.78,-101.773 -41.33,-131.453 -27.56,-29.668 -62.55,-44.5 -104.95,-44.5 -42.39,0 -76.84,15.211 -103.34,45.562 -26.5,30.379 -39.73,73.821 -39.73,130.391 v 827.768 c 0,57.23 13.23,100.33 39.73,129.3 26.5,28.96 60.95,43.47 103.34,43.47 42.4,0 77.39,-14.51 104.95,-43.47 27.55,-28.97 41.33,-69.25 41.33,-120.8 z m -143.11,298.86 c -40.24,0 -74.69,12.37 -103.34,37.1 -28.61,24.74 -42.9,59.7 -42.9,104.94 0,40.96 14.64,74.73 43.99,101.21 29.29,26.49 63.39,39.76 102.25,39.76 37.46,0 70.66,-12.02 99.66,-36.05 28.97,-24.04 43.45,-59 43.45,-104.92 0,-44.54 -14.16,-79.33 -42.39,-104.39 -28.27,-25.09 -61.85,-37.65 -100.72,-37.65" /><path
         id="path18"
         style="fill:#ab1e27;fill-opacity:1;fill-rule:nonzero;stroke:none"
         d="m 2557.5,1208.42 234.24,-657.119 252.24,685.759 c 19.78,55.12 39.23,94.15 58.3,117.12 19.09,22.95 48.06,34.44 86.93,34.44 36.72,0 67.99,-12.39 93.79,-37.1 25.79,-24.73 38.67,-53.35 38.67,-85.85 0,-12.71 -2.3,-27.54 -6.88,-44.54 -4.58,-16.94 -9.91,-32.84 -15.9,-47.67 -6.02,-14.84 -12.91,-31.79 -20.67,-50.89 L 3000.54,433.641 c -7.79,-19.77 -17.85,-44.86 -30.22,-75.239 -12.37,-30.41 -26.15,-56.363 -41.34,-77.89 -15.19,-21.571 -33.9,-38.36 -56.17,-50.371 -22.27,-12 -49.28,-18.012 -81.07,-18.012 -40.98,0 -73.66,9.383 -98.05,28.09 -24.39,18.722 -42.4,39.191 -54.06,61.472 -11.66,22.27 -31.27,66.231 -58.83,131.95 l -275.57,681.529 c -6.35,16.95 -12.89,33.9 -19.61,50.86 -6.7,16.98 -12.37,34.28 -16.95,51.94 -4.59,17.66 -6.89,32.87 -6.89,45.57 0,19.79 5.99,39.37 18.04,58.82 11.98,19.42 28.61,35.35 49.79,47.72 21.22,12.33 44.16,18.54 68.9,18.54 48.03,0 81.1,-13.77 99.11,-41.32 18.01,-27.56 37.97,-73.87 59.88,-138.88" /><path
         id="path20"
         style="fill:#ab1e27;fill-opacity:1;fill-rule:nonzero;stroke:none"
         d="m 4293.58,800.379 c 0,117.98 -25.95,209.841 -77.9,275.571 -51.94,65.72 -121.7,98.56 -209.3,98.56 -56.56,0 -106.38,-14.68 -149.45,-43.99 -43.14,-29.32 -76.33,-72.61 -99.66,-129.84 -23.3,-57.231 -34.96,-124.008 -34.96,-200.301 0,-75.617 11.47,-141.699 34.45,-198.219 22.94,-56.531 55.82,-99.82 98.56,-129.851 42.75,-30.02 93.09,-45.02 151.06,-45.02 87.6,0 157.36,33.012 209.3,99.09 51.95,66.07 77.9,157.391 77.9,274 z m 290.44,0 c 0,-86.231 -13.45,-165.727 -40.28,-238.508 -26.88,-72.762 -65.71,-135.312 -116.6,-187.57 C 4376.25,322 4315.5,281.879 4244.84,254 c -70.65,-27.91 -150.15,-41.871 -238.46,-41.871 -87.64,0 -166.44,14.133 -236.38,42.391 -69.96,28.261 -130.55,68.699 -181.76,121.351 -51.23,52.649 -90.11,114.84 -116.6,186.551 -26.5,71.707 -39.74,151.027 -39.74,237.957 0,87.601 13.4,167.801 40.28,240.581 26.85,72.77 65.34,134.97 115.52,186.55 50.18,51.56 110.93,91.33 182.3,119.24 71.35,27.91 150.15,41.87 236.38,41.87 87.6,0 167.07,-14.16 238.46,-42.42 71.36,-28.26 132.5,-68.53 183.35,-120.8 50.89,-52.29 89.56,-114.49 116.07,-186.56 26.49,-72.059 39.76,-151.559 39.76,-238.461" /><path
         id="path22"
         style="fill:#ab1e27;fill-opacity:1;fill-rule:nonzero;stroke:none"
         d="m 4827.77,1363.18 h 31.79 v 173.81 c 0,46.65 1.25,83.22 3.72,109.72 2.47,26.49 9.36,49.28 20.67,68.34 11.31,19.77 27.55,35.86 48.76,48.23 21.19,12.36 44.87,18.56 71.02,18.56 36.72,0 69.94,-13.78 99.62,-41.34 19.77,-18.4 32.33,-40.79 37.62,-67.3 5.32,-26.49 7.95,-64.12 7.95,-112.89 v -197.13 h 105.99 c 40.99,0 72.23,-9.73 93.79,-29.16 21.57,-19.44 32.34,-44.34 32.34,-74.72 0,-38.87 -15.36,-66.08 -46.12,-81.61 -30.72,-15.54 -74.71,-23.3 -131.95,-23.3 h -54.05 V 622.309 c 0,-45.239 1.6,-80.02 4.77,-104.399 3.18,-24.379 11.66,-44.18 25.44,-59.371 13.78,-15.187 36.21,-22.789 67.3,-22.789 16.98,0 39.92,3.02 68.88,9.012 28.98,6.019 51.59,9.039 67.84,9.039 23.32,0 44.35,-9.403 63.06,-28.11 18.71,-18.711 28.11,-41.839 28.11,-69.402 0,-46.66 -25.45,-82.348 -76.33,-107.059 -50.85,-24.742 -124.02,-37.101 -219.41,-37.101 -90.42,0 -158.96,15.211 -205.58,45.562 -46.66,30.379 -77.23,72.418 -91.71,126.161 -14.48,53.668 -21.73,125.378 -21.73,215.128 v 555.41 h -38.12 c -41.73,0 -73.52,9.87 -95.4,29.67 -21.92,19.78 -32.88,44.87 -32.88,75.24 0,30.38 11.47,55.28 34.45,74.72 22.98,19.43 56.34,29.16 100.16,29.16" /><path
         id="path24"
         style="fill:#ab1e27;fill-opacity:1;fill-rule:nonzero;stroke:none"
         d="m 5821.95,893.648 h 524.68 c -7.08,98.922 -33.77,172.912 -80.05,222.032 -46.27,49.12 -107.21,73.67 -182.83,73.67 -72.07,0 -131.25,-24.9 -177.52,-74.72 -46.31,-49.83 -74.37,-123.47 -84.28,-220.982 z m 566.02,-164.277 h -566.02 c 0.71,-65.73 13.98,-123.691 39.77,-173.832 25.76,-50.187 60.05,-87.957 102.79,-113.41 42.75,-25.438 89.91,-38.168 141.51,-38.168 34.61,0 66.23,4.078 94.85,12.18 28.61,8.148 56.36,20.859 83.21,38.172 26.86,17.296 51.55,35.859 74.18,55.656 22.63,19.773 51.95,46.621 87.99,80.562 14.84,12.68 36.02,19.059 63.57,19.059 29.71,0 53.72,-8.129 72.1,-24.379 18.36,-16.25 27.56,-39.219 27.56,-68.902 0,-26.137 -10.25,-56.68 -30.76,-91.668 -20.48,-34.989 -51.4,-68.551 -92.73,-100.68 -41.34,-32.172 -93.28,-58.832 -155.79,-80.039 -62.55,-21.192 -134.46,-31.793 -215.69,-31.793 -185.86,0 -330.37,53 -433.51,158.992 -103.19,105.969 -154.74,249.75 -154.74,431.371 0,85.488 12.71,164.797 38.16,237.958 25.44,73.11 62.51,135.83 111.28,188.12 48.74,52.3 108.79,92.39 180.19,120.29 71.36,27.91 150.51,41.88 237.4,41.88 113.06,0 210.05,-23.86 290.96,-71.55 80.88,-47.68 141.5,-109.37 181.75,-184.95 40.28,-75.63 60.44,-152.631 60.44,-231.068 0,-72.774 -20.86,-119.942 -62.55,-141.5 -41.69,-21.531 -100.34,-32.301 -175.92,-32.301" /><path
         id="path26"
         style="fill:#ab1e27;fill-opacity:1;fill-rule:nonzero;stroke:none"
         d="M 7157.45,629.719 V 388.082 c 0,-58.684 -13.78,-102.641 -41.33,-131.961 -27.56,-29.32 -62.55,-43.992 -104.94,-43.992 -41.69,0 -75.97,14.832 -102.8,44.5 -26.89,29.68 -40.27,73.48 -40.27,131.453 v 805.498 c 0,130 46.97,195.04 140.95,195.04 48.04,0 82.68,-15.21 103.86,-45.59 21.21,-30.37 32.87,-75.24 34.99,-134.61 34.6,59.37 70.11,104.24 106.5,134.61 36.41,30.38 84.98,45.59 145.75,45.59 60.78,0 119.77,-15.21 177,-45.59 57.22,-30.37 85.85,-70.66 85.85,-120.83 0,-35.31 -12.18,-64.48 -36.56,-87.41 -24.36,-22.98 -50.7,-34.46 -78.96,-34.46 -10.61,0 -36.21,6.51 -76.85,19.61 -40.62,13.05 -76.48,19.58 -107.56,19.58 -42.4,0 -77.04,-11.11 -103.89,-33.36 -26.85,-22.26 -47.68,-55.3 -62.51,-99.11 -14.87,-43.831 -25.1,-95.941 -30.76,-156.339 -5.65,-60.402 -8.47,-134.063 -8.47,-220.992" /><path
         id="path28"
         style="fill:#efa20f;fill-opacity:1;fill-rule:nonzero;stroke:none"
         d="m 4205.91,5543.25 c 0,-135.11 -109.52,-244.62 -244.63,-244.62 -135.1,0 -244.62,109.51 -244.62,244.62 0,135.11 109.52,244.63 244.62,244.63 135.11,0 244.63,-109.52 244.63,-244.63" /><path
         id="path30"
         style="fill:#efa20f;fill-opacity:1;fill-rule:nonzero;stroke:none"
         d="m 2779.82,4353.32 c 71.54,-114.61 36.63,-265.52 -77.98,-337.06 -114.6,-71.54 -265.51,-36.63 -337.05,77.98 -71.54,114.61 -36.63,265.51 77.98,337.05 114.6,71.54 265.51,36.63 337.05,-77.97" /><path
         id="path32"
         style="fill:#efa20f;fill-opacity:1;fill-rule:nonzero;stroke:none"
         d="m 2953.92,2492.06 c 0,0 -508.55,780.15 -226.17,1482.7 0,0 702.98,-28.99 1213.54,-835.34 0,0 -294.62,217.99 -482.03,248.66 0,0 365.08,-510.12 541.1,-1452 0,0 -677.77,446.04 -1064.73,1136.57 0,0 -64.75,-330.11 18.29,-580.59" /><path
         id="path34"
         style="fill:#efa20f;fill-opacity:1;fill-rule:nonzero;stroke:none"
         d="m 5482.59,4202.29 c -63.44,-119.28 -211.56,-164.56 -330.84,-101.12 -119.29,63.43 -164.56,211.56 -101.12,330.84 63.42,119.29 211.55,164.56 330.83,101.12 119.29,-63.43 164.57,-211.55 101.13,-330.84" /><path
         id="path36"
         style="fill:#efa20f;fill-opacity:1;fill-rule:nonzero;stroke:none"
         d="m 3958.17,3120.3 c 0,0 421.03,830.65 1170.6,937.67 0,0 326.63,-623.17 -116.08,-1468.67 0,0 41.33,364.16 -25.88,541.77 0,0 -259.02,-571.32 -986.45,-1194.99 0,0 47.07,810 451.35,1490.55 0,0 -318.22,-109.12 -493.54,-306.33" /><path
         id="path38"
         style="fill:#efa20f;fill-opacity:1;fill-rule:nonzero;stroke:none"
         d="m 4548.39,3898.48 c -6.11,954.38 -587.11,1351.22 -587.11,1351.22 -611.56,-446.44 -593.27,-1377.52 -593.27,-1377.52 62.2,256.44 291.92,502.19 291.92,502.19 l -174.08,-621.77 281.56,-277.44 c 72.6,-79.78 159.87,-177.73 190.76,-220.98 0,0 80.53,106.08 158.08,211.45 v 0 c 69.79,94.09 267.63,313.73 267.63,313.73 l -112.73,585.31 c 142.74,-125.26 277.24,-466.19 277.24,-466.19" /></g></g></svg>