<svg xmlns:dc="http://purl.org/dc/elements/1.1/" xmlns:cc="http://creativecommons.org/ns#" xmlns:rdf="http://www.w3.org/1999/02/22-rdf-syntax-ns#" xmlns:svg="http://www.w3.org/2000/svg" xmlns="http://www.w3.org/2000/svg" height="24" width="105" xml:space="preserve" version="1.1" style=""><rect id="backgroundrect" width="100%" height="100%" x="0" y="0" fill="none" stroke="none" class="" style=""/><metadata id="metadata8"><rdf:RDF><cc:Work rdf:about=""><dc:format>image/svg+xml</dc:format><dc:type rdf:resource="http://purl.org/dc/dcmitype/StillImage"/></cc:Work></rdf:RDF></metadata>
    <defs id="defs6"/>
    <g class="currentLayer" style=""><title>Layer 1</title><path id="path14" style="fill:#f46f1b;fill-opacity:1;fill-rule:nonzero;stroke:none" d="m4.4473958217531315,19.898398628622328 h6.334893269358265 c2.1291733118311544,0 3.505706631263099,-0.489999995051569 4.129706624961424,-1.468133318506891 c0.6234666603703771,-0.9786666567832695 0.934933323891592,-3.1390666349657375 0.934933323891592,-6.4807999345514435 c0,-3.4571999650862932 -0.2802666638362988,-5.6535999429052035 -0.8406666581769092,-6.593733266744282 c-0.561466660996505,-0.9379999905272892 -1.8770933143768704,-1.4077333191168608 -3.9484532934585386,-1.4077333191168608 H4.4473958217531315 zM-1.5265566629954933e-16,23.641731924152342 V0.2051988275007873 H11.520835750319598 c3.2728933002809106,0 5.565559943794305,0.7161333261012182 6.876626597220721,2.146399978323852 c1.3093333201105868,1.4317333188744887 1.9655999801497221,3.9374666269028245 1.9655999801497221,7.520266590720704 c0,5.848533274269936 -0.5266666613479444,9.606266569654526 -1.5797333173798607,11.271333219505951 C17.730262354278267,22.808398599234707 15.355195711597013,23.641731924152342 11.657809082269662,23.641731924152342 H-1.5265566629954933e-16 " stroke-width="0" class=""/><path id="path16" style="fill:#f46f1b;fill-opacity:1;fill-rule:nonzero;stroke:none" d="m36.51452883124564,3.8114654577483407 c-2.9869333031687746,0 -4.732266618876267,0.3827999961341645 -5.236399947118439,1.1505333217142824 c-0.5030666615862771,0.7666666589242236 -0.7557333257013038,3.4223999654377333 -0.7557333257013038,7.96506658622874 c0,3.3655999660113474 0.2947999970228624,5.392266612211033 0.884933324396534,6.079199938607138 c0.589066660717777,0.685999993072197 2.3259999765101003,1.029733322934222 5.210933280708956,1.029733322934222 c2.7582666388113757,0 4.411999955443923,-0.3865333294297954 4.961466616561613,-1.1594666549573993 c0.549466661117691,-0.7723999921996567 0.8233333250186222,-3.116133301864004 0.8233333250186222,-7.030133262337148 c0,-3.9255999603559975 -0.2598666640423151,-6.246399936918611 -0.7801333254548923,-6.961999929691883 c-0.5207999947405246,-0.7150666594453235 -2.223466644212235,-1.0729333224979523 -5.1083999484110905,-1.0729333224979523 m0.3433333298660654,-3.811466628175278 c4.258799956991064,0 6.99946659598018,0.7067999928621408 8.224933250271055,2.1198666452584747 c1.2239999876390208,1.4134666523922943 1.835999981458532,4.575466620459766 1.835999981458532,9.485866570870426 c0,5.367733279125458 -0.6151999937871945,8.750533244963107 -1.845333314697609,10.147466564189033 c-1.2307999875703488,1.3962666525659941 -4.209333290823953,2.094266645517005 -8.935999909756774,2.094266645517005 c-4.257733290335169,0 -7.010933262531046,-0.6895999930358409 -8.25826658326776,-2.069333312435469 c-1.2479999873966487,-1.3786666527437341 -1.8718666477629864,-4.415066622079618 -1.8718666477629864,-9.1077332413558 c0,-5.585999943587885 0.6123999938154712,-9.093333241501224 1.837999981438334,-10.52346656039187 c1.2239999876390208,-1.4313333188785282 4.228133290634095,-2.1469333116517992 9.01253324231721,-2.1469333116517992 " stroke-width="0" class=""/><path id="path18" style="fill:#f46f1b;fill-opacity:1;fill-rule:nonzero;stroke:none" d="M75.19266177397473,0.2051988275007873 V23.641731924152342 h-7.535866590563161 l-6.696933265702081,-12.86039987012489 c-0.3317333299832118,-0.6411999935246248 -0.8525333247237362,-1.761999982205846 -1.5623999842215741,-3.365199966015387 l-0.7553333257053433,-1.6817333163497796 l-0.7374666592191096,-1.6827999830056743 h-0.1729333315869076 l0.06933333263314716,1.5447999843993134 l0.051599999478899934,1.5281333179009604 l0.03373333299266584,3.073466635628221 V23.641731924152342 h-4.446799955092482 v-23.436533096651555 h7.536933257219057 l6.095333271777544,11.880799880017712 c0.5374666612388772,1.0541333226878105 1.1614666549372017,2.330133309801692 1.8707999811070923,3.8290666279975385 l0.8937333243076643,1.9053333140916786 l0.891733324327862,1.923866647237847 h0.1535999984488184 l-0.05093333281896584,-1.5114666514026076 l-0.05053333282300538,-1.5114666514026076 l-0.03386666632465266,-3.021333302821374 v-13.494799863718187 h4.4462666217645355 " stroke-width="0" class=""/><path id="path20" style="fill:#f46f1b;fill-opacity:1;fill-rule:nonzero;stroke:none" d="M104.58226147717389,0.2051988275007873 V23.641731924152342 h-7.5374665905470035 l-6.6958665990461865,-12.86039987012489 c-0.3317333299832118,-0.6411999935246248 -0.8535999913796309,-1.761999982205846 -1.5625333175535605,-3.365199966015387 l-0.7551999923733571,-1.6817333163497796 l-0.7379999925470572,-1.6827999830056743 h-0.17186666493101288 l0.06773333264930533,1.5447999843993134 l0.05306666613075499,1.5281333179009604 l0.03386666632465266,3.073466635628221 V23.641731924152342 H82.82972836351588 v-23.436533096651555 h7.53639992389111 l6.095333271777544,11.880799880017712 c0.5374666612388772,1.0541333226878105 1.1614666549372017,2.330133309801692 1.8707999811070923,3.8290666279975385 l0.8931999909797171,1.9053333140916786 l0.8933333243117038,1.923866647237847 h0.1535999984488184 l-0.05213333280684724,-1.5114666514026076 l-0.05053333282300538,-1.5114666514026076 l-0.0353333329765077,-3.021333302821374 v-13.494799863718187 h4.4478666217483775 " stroke-width="0" class=""/></g></svg>