<svg xmlns:dc="http://purl.org/dc/elements/1.1/" xmlns:cc="http://creativecommons.org/ns#" xmlns:rdf="http://www.w3.org/1999/02/22-rdf-syntax-ns#" xmlns:svg="http://www.w3.org/2000/svg" xmlns="http://www.w3.org/2000/svg" height="459" width="1347" xml:space="preserve" version="1.1" style=""><rect id="backgroundrect" width="100%" height="100%" x="0" y="0" fill="none" stroke="none" class="" style=""/><metadata id="metadata8"><rdf:RDF><cc:Work rdf:about=""><dc:format>image/svg+xml</dc:format><dc:type rdf:resource="http://purl.org/dc/dcmitype/StillImage"/></cc:Work></rdf:RDF></metadata>
    <defs id="defs6"/>
    <g class="currentLayer" style=""><title>Layer 1</title><g id="g10" class=""><g id="g12" stroke-width="0"><path id="path14" style="fill:#f46f1b;fill-opacity:1;fill-rule:nonzero;stroke:none" d="m46.431865302703585,204.93601053738627 h65.2438256473926 c21.928611331484305,0 36.105693102578186,-5.046568724212517 42.53234388606515,-15.120481148926261 c6.421157919569449,-10.079405288631257 9.628990447395418,-32.329623802485784 9.628990447395418,-66.74653589362545 c0,-35.606117129280626 -2.8864999886516216,-58.2271039575671 -8.658126749975485,-67.90964982815825 c-5.782612489158885,-9.660574414921104 -19.332409200873105,-14.49841431026823 -40.6655940836993,-14.49841431026823 H46.431865302703585 zM0.6276022722709037,243.48904915841115 V2.1133835993007213 H119.2820715814664 c33.707920680987044,0 57.320369446384106,7.375543025236851 70.82320217160361,22.106030836019887 c13.484980917487595,14.745593186556189 20.243949967983923,40.55244108699859 20.243949967983923,77.45212766885288 c0,60.23474571941709 -5.424203118541342,98.93609166621474 -16.269862923665276,116.08481281668163 C183.23370099226472,234.9064492873014 158.7726047516123,243.48904915841115 120.69277635708099,243.48904915841115 H0.6276022722709037 " stroke-width="0"/><path id="path16" style="fill:#f46f1b;fill-opacity:1;fill-rule:nonzero;stroke:none" d="m376.69511459893346,39.254756193525395 c-30.762784370016,0 -48.73818154006819,3.9425030767929616 -53.93031115809473,11.849480686048926 c-5.181143890191515,7.8959918814209455 -7.783388171111983,35.24770775866309 -7.783388171111983,82.0331761760564 c0,34.662717751448255 3.0361805304037763,55.535600637987095 9.114034455128836,62.61040936374026 c6.066868196890039,7.065196213897526 23.955752760241452,10.60534700873286 53.668026906033624,10.60534700873286 c28.40771896538349,0 45.439716757603314,-3.980953124215533 51.09873980861821,-11.94148615666722 c5.6590230510149055,-7.955040168534178 8.479608672656402,-32.093430654032844 8.479608672656402,-72.40418572866098 c0,-40.43022486483399 -2.676397943806856,-64.33242220187971 -8.034686695338076,-71.70247236319906 c-5.363781615448731,-7.36455729740183 -22.899749672100114,-11.050268986051188 -52.61202381789228,-11.050268986051188 m3.5360311468972063,-39.254751986486795 c43.861891597298495,0 72.08834605340415,7.279417906680423 84.70957411986326,21.832760856123755 c12.606122690685957,14.557462597381464 18.90918403602894,47.1232795483202 18.90918403602894,97.6960776368368 c0,55.28292889778162 -6.336018528848041,90.1227915105696 -19.005309154585365,104.50997532650823 c-12.676156705634213,14.380317736041759 -43.35242846894942,21.569103388083267 -92.03293493788375,21.569103388083267 c-43.850905869463475,0 -72.20644262763062,-7.102273045340718 -85.05287811470764,-21.31231199993966 c-12.853301566973917,-14.199053226763926 -19.2785791344815,-45.471300725128984 -19.2785791344815,-93.80163711932207 c0,-57.530883456022686 6.307180993281113,-93.65332979354928 18.929782275719603,-108.38244438835294 c12.606122690685957,-14.741473538618056 43.546051922041656,-22.111523699937397 92.82116091004647,-22.111523699937397 " stroke-width="0"/><path id="path18" style="fill:#f46f1b;fill-opacity:1;fill-rule:nonzero;stroke:none" d="M775.045845192651,2.1133835993007213 V243.48904915841115 h-77.61279393844005 l-68.97251899619647,-132.45080085890336 c-3.416561356691358,-6.603795644826667 -8.780342972140089,-18.147049167474396 -16.091344846346196,-34.65859810351012 l-7.779268523173849,-17.320373147889107 l-7.595257581937259,-17.33135887572413 h-1.7810611252526902 l0.7140723092763287,15.910080337068356 l0.531434584019114,15.73842833964616 l0.3474236427825217,31.654001540632024 V243.48904915841115 h-45.798126128220844 v-241.37566555911042 h77.62377966627508 l62.77656849724495,122.36178305841644 c5.535433612870925,10.856645532958954 11.962084396357884,23.99832245560216 19.267593406646483,39.43601649576463 l9.204666709767753,19.623256345305265 l9.184068470077092,19.81413336643875 h1.5819448082429441 l-0.5245685041222261,-15.566776342223966 l-0.520448856184094,-15.566776342223966 l-0.3487968587618992,-31.117074092695404 v-138.98456248878176 h45.79263326430334 " stroke-width="0"/><path id="path20" style="fill:#f46f1b;fill-opacity:1;fill-rule:nonzero;stroke:none" d="M1077.7328577990104,2.1133835993007213 V243.48904915841115 h-77.62927253019258 l-68.96153326836145,-132.45080085890336 c-3.416561356691358,-6.603795644826667 -8.791328699975109,-18.147049167474396 -16.09271806232557,-34.65859810351012 l-7.777895307194475,-17.320373147889107 l-7.6007504458547706,-17.33135887572413 h-1.7700753974176688 l0.6975937175237986,15.910080337068356 l0.5465399597922671,15.73842833964616 l0.3487968587618992,31.654001540632024 V243.48904915841115 H853.7009100594386 v-241.37566555911042 h77.61828680235757 l62.77656849724495,122.36178305841644 c5.535433612870925,10.856645532958954 11.962084396357884,23.99832245560216 19.267593406646483,39.43601649576463 l9.199173845850245,19.623256345305265 l9.20054706182962,19.81413336643875 h1.5819448082429441 l-0.5369274479366245,-15.566776342223966 l-0.520448856184094,-15.566776342223966 l-0.3639022345350523,-31.117074092695404 v-138.98456248878176 h45.80911185605588 " stroke-width="0"/><path id="path22" style="fill:#da4219;fill-opacity:1;fill-rule:nonzero;stroke:none" d="m1162.3792639838225,244.98036171201514 v-40.97127196070874 h80.99777132760573 c42.52712566534352,0 56.01210658283111,3.389097037103808 56.01210658283111,-29.915510110740044 c0,-25.61459766332954 -6.570838461321604,-31.831146401971733 -34.58169800866498,-31.831146401971733 h-101.74157191208309 v-42.31839683647812 h101.74157191208309 c25.93455698652451,0 30.43046610300663,-3.1529038886508682 30.43046610300663,-31.969841215888867 c0,-23.05492307776978 -11.404558708730598,-24.96918615302209 -51.86087467717275,-24.96918615302209 l-81.03484815904892,-0.5053434804109405 v-40.986377336481894 h81.03484815904892 c49.09247126274761,0 98.871550515184,0.31034681133932773 98.871550515184,62.7491041776574 c0,28.499724436001785 -5.867751879880295,52.83173837459269 -40.79412709936904,56.039570902418646 v1.2867033726767696 c35.60749034526001,2.2369688304060382 44.94123935708925,21.129674274682447 44.94123935708925,52.504912971500836 c0,66.28925497249274 -37.00267778030761,71.41135057557102 -103.01866277290421,71.41135057557102 l-80.99777132760573,-0.5245685041222261 " stroke-width="0"/><path id="path24" style="fill:#fab20b;fill-opacity:1;fill-rule:nonzero;stroke:none" d="M62.69596071925549,450.9783308878546 L40.94435692751294,458.83677904439935 L36.712105279071324,450.9783308878546 L56.049732700666056,438.59255443321956 zM99.70303279069711,389.49472762815236 V392.82051940860686 C99.70303279069711,405.20088539228317 99.55815850487275,416.3850429363237 89.28581637113895,424.99455784062917 C79.00825601668353,433.4590611375125 66.46681179862624,433.303475767049 53.32472291118923,433.303475767049 C22.50783383158576,433.303475767049 0,431.79623390808416 0,390.3959692754179 v-29.309647220638666 c0,-37.4576242342754 20.08863924071632,-42.902562914105346 53.32472291118923,-42.902562914105346 c31.128059820530424,0 45.62729806038628,3.1762485603002863 46.23343559368354,37.16828762742055 V359.72917270236036 H68.43545422666192 v-4.377125934265958 c-1.056689696131029,-10.12746784790947 -8.153469877554237,-10.878479667031055 -18.436385774329246,-10.878479667031055 c-17.218892487013104,0 -18.881719716441392,5.28372312385102 -18.881719716441392,21.451144135454733 V383.59951142868454 c0,16.923925694642808 0.7615855821627924,23.419786563490394 18.881719716441392,23.419786563490394 c12.54666243877891,0 18.58661560247315,-0.9064598679871249 18.58661560247315,-14.198778583568048 v-3.3257917804545025 h31.117348735891284 " stroke-width="0"/><path id="path26" style="fill:#fab20b;fill-opacity:1;fill-rule:nonzero;stroke:none" d="m161.0260521737709,341.74869463318447 h-0.30622716340119494 L146.97667948875915,390.8518769805712 h28.09187929012665 zM140.4813679063033,412.9091586493232 L134.88633671992739,432.39701589906184 H103.46866564934624 l33.98750745438831,-113.30144134808127 h45.932701294199845 l34.443003194747845,113.30144134808127 h-30.82183265712924 l-5.889723335550335,-19.487857249738642 h-40.63895369369938 " stroke-width="0"/><path id="path28" style="fill:#fab20b;fill-opacity:1;fill-rule:nonzero;stroke:none" d="m310.1051253269571,366.07494106466197 h46.23343559368354 V390.8518769805712 H310.1051253269571 V432.39701589906184 h-30.210751546306216 v-113.30144134808127 h80.37570448894769 V343.8674295677661 H310.1051253269571 V366.07494106466197 " stroke-width="0"/><path id="path30" style="fill:#fab20b;fill-opacity:1;fill-rule:nonzero;stroke:none" d="m419.32385824675094,341.74869463318447 h-0.2993610835043073 L405.28135164163604,390.8518769805712 h28.09187929012665 zm-20.544684267467606,71.16046401613873 l-5.58898903606665,19.487857249738642 h-31.4233012560966 l33.99258835351201,-113.30144134808127 h45.92858164626171 L476.1351765295798,432.39701589906184 h-30.82732552104674 l-5.884230471632826,-19.487857249738642 h-40.64444655761688 " stroke-width="0"/><path id="path32" style="fill:#fab20b;fill-opacity:1;fill-rule:nonzero;stroke:none" d="m514.4836059696775,432.39701589906184 h-30.210751546306216 v-113.30144134808127 h30.210751546306216 V432.39701589906184 " stroke-width="0"/><path id="path34" style="fill:#fab20b;fill-opacity:1;fill-rule:nonzero;stroke:none" d="m583.8255200643264,432.39701589906184 h-30.216244410223727 v-87.01685160841342 h-29.003694700433346 v-26.284589739667855 h89.73142495644696 V345.3801642906484 H583.8255200643264 V432.39701589906184 " stroke-width="0"/><path id="path36" style="fill:#fab20b;fill-opacity:1;fill-rule:nonzero;stroke:none" d="m707.973857111913,406.1128381241878 h26.439900466935452 c11.18896379996832,0 15.266042042740285,-7.402595380030588 15.266042042740285,-19.337764743192675 V363.0549644828149 c0,-14.654823610319333 -4.673053977821819,-17.674800192166455 -15.266042042740285,-17.674800192166455 h-26.439900466935452 zm-30.205258682388706,-87.01726357320725 h57.39493507406431 c31.594953253518796,0 45.62784734677803,11.779995957492421 45.62784734677803,43.9593899318343 V386.77507338099514 c0,30.967118907747377 -9.950322986569768,45.62194251806672 -41.55076910400607,45.62194251806672 h-61.47201331683627 v-113.30144134808127 " stroke-width="0"/><path id="path38" style="fill:#fab20b;fill-opacity:1;fill-rule:nonzero;stroke:none" d="M894.692780259838,319.0955745509806 V394.6282209238595 c0,30.210751546306216 -14.208665738619567,38.67525484318947 -47.445985303473925,38.67525484318947 c-45.32024696739746,0 -50.14847435088895,-11.479124336410798 -50.14847435088895,-38.67525484318947 v-75.53264637287893 h30.22723013805875 V394.0274389328818 c0,12.836273688829637 7.235474995340339,12.991859059293114 19.921244212830196,12.991859059293114 c12.853301566973917,0 17.220128381394545,-1.0620452384506014 17.220128381394545,-14.354363954031523 v-73.56935948716284 h30.225856922079373 " stroke-width="0"/><path id="path40" style="fill:#fab20b;fill-opacity:1;fill-rule:nonzero;stroke:none" d="m998.8910355590275,407.6200799831526 h22.824222793234345 c9.822613900487653,0 13.892826063362728,-2.2636092204059626 13.892826063362728,-11.48461720032831 c0,-9.360389401829167 -3.453638188134553,-10.722894296567578 -13.296850328312868,-10.722894296567578 H998.8910355590275 zm0,-43.20796614791891 h21.757233977257986 c10.59436128089784,0 13.136184058725695,-1.8077015152526141 13.136184058725695,-10.873124124711484 c0,-6.801676067454971 -1.0395244963888095,-9.365744944148739 -9.494415281416419,-9.671560142756125 H998.8910355590275 zm-30.19427295455369,-45.31653928425314 h59.515180546223256 c22.497397390142492,0 35.80523344629038,4.221952528596295 35.80523344629038,29.0042439868251 c0,14.349008411711951 -2.8755142608166016,23.72010889818026 -17.83532914015569,26.133947946730128 v1.2122750665945063 c16.78344569995248,1.0514714754093943 19.65346709685157,11.173583780999293 19.65346709685157,25.37771790688691 c0,27.79691249775636 -13.007101756664204,31.57325644104463 -37.00679742824574,31.57325644104463 h-60.131754520963774 v-113.30144134808127 " stroke-width="0"/><path id="path42" style="fill:#fab20b;fill-opacity:1;fill-rule:nonzero;stroke:none" d="M1111.302495630874,432.39701589906184 H1081.0752654928156 V319.0955745509806 H1111.302495630874 V432.39701589906184 " stroke-width="0"/><path id="path44" style="fill:#fab20b;fill-opacity:1;fill-rule:nonzero;stroke:none" d="M1161.1351303065062,364.56234366337765 H1209.4874381563693 V385.56279831440065 H1161.1351303065062 V407.6200799831526 h52.58867914624286 v24.77693591590923 h-82.79393782863157 v-113.30144134808127 h81.7214561487377 V343.8674295677661 H1161.1351303065062 V364.56234366337765 " stroke-width="0"/><path id="path46" style="fill:#fab20b;fill-opacity:1;fill-rule:nonzero;stroke:none" d="m1263.6910192943603,432.39701589906184 h-30.19427295455369 v-113.30144134808127 h51.06166297717501 l32.48479720815545,87.01726357320725 h1.2070568458728714 l-1.823630820613394,-87.01726357320725 h30.220364058161866 V432.39701589906184 h-51.51619746634899 l-32.028889503002105,-87.01685160841342 h-1.2015639819553616 l1.7906736371083325,87.01685160841342 " stroke-width="0"/></g></g></g></svg>