<svg xmlns="http://www.w3.org/2000/svg" xmlns:xlink="http://www.w3.org/1999/xlink"
     xml:space="preserve" width="963" height="389" version="1.1"
     style="shape-rendering: geometricprecision; text-rendering: geometricprecision; fill-rule: evenodd; clip-rule: evenodd;"><rect id="backgroundrect" width="100%" height="100%" x="0" y="0" fill="none" stroke="none" class="" style=""/>
    <defs>
  <style type="text/css">
   <![CDATA[
    .fil2 {fill:#D95C34;fill-rule:nonzero}
    .fil1 {fill:#F58437;fill-rule:nonzero}
    .fil0 {fill:#F7BC36;fill-rule:nonzero}
   ]]>
  </style>
 </defs>

    <g class="currentLayer" style=""><title>Layer 1</title>
        <metadata id="CorelCorpID_0Corel-Layer"/>
        <g class=""><polygon class="fil0" points="14.041370391845703,387.89405727386475 1.7551155090332031,387.89405727386475 1.7551155090332031,315.05421352386475 51.7776985168457,315.05421352386475 51.7776985168457,329.09559535980225 17.551746368408203,329.09559535980225 17.551746368408203,344.01454067230225 50.9001350402832,344.01454067230225 50.9001350402832,358.05604457855225 17.551746368408203,358.05604457855225 17.551746368408203,387.89405727386475 14.041370391845703,387.89405727386475 " id="svg_1"/>
            <polygon class="fil0"
                     points="59.6760139465332,387.89405727386475 59.6760139465332,315.05421352386475 110.5761604309082,315.05421352386475 110.5761604309082,329.09559535980225 74.5949592590332,329.09559535980225 74.5949592590332,343.13697719573975 109.6984748840332,343.13697719573975 109.6984748840332,357.17835903167725 74.5949592590332,357.17835903167725 74.5949592590332,373.85255336761475 110.5761604309082,373.85255336761475 110.5761604309082,387.89405727386475 59.6760139465332,387.89405727386475 "
                     id="svg_2"/>
            <polygon class="fil0"
                     points="121.1071662902832,387.89405727386475 121.1071662902832,315.05421352386475 172.8848762512207,315.05421352386475 172.8848762512207,329.09559535980225 136.0261116027832,329.09559535980225 136.0261116027832,343.13697719573975 171.1297492980957,343.13697719573975 171.1297492980957,357.17835903167725 136.0261116027832,357.17835903167725 136.0261116027832,373.85255336761475 172.8848762512207,373.85255336761475 172.8848762512207,387.89405727386475 121.1071662902832,387.89405727386475 "
                     id="svg_3"/>
            <polygon class="fil0"
                     points="182.5383186340332,387.89405727386475 182.5383186340332,315.05421352386475 197.4573860168457,315.05421352386475 197.4573860168457,372.97498989105225 233.4384651184082,372.97498989105225 233.4384651184082,387.89405727386475 182.5383186340332,387.89405727386475 "
                     id="svg_4"/>
            <path class="fil0"
                  d="M288.7265104651451,387.8940042257309 c-3.5103528499603263,-0.8775882124900822 -7.020705699920654,-2.6327646374702454 -9.6534703373909,-4.387941062450409 l0,0 c-4.387941062450409,-3.5103528499603263 -6.1431174874305725,-9.6534703373909 -7.020705699920654,-15.796587824821472 l0,0 c0,-1.7551764249801636 0,-4.387941062450409 0,-7.020705699920654 l0,0 c0,-0.8775882124900822 0,-1.7551764249801636 0,-1.7551764249801636 l0,0 c0,-0.8775882124900822 0,-3.5103528499603263 0,-7.020705699920654 l0,0 c0,-0.8775882124900822 0,-1.7551764249801636 0,-2.6327646374702454 l0,0 c0,-6.1431174874305725 0,-10.531058549880981 0.8775882124900822,-14.041411399841309 l0,0 c0.8775882124900822,-3.5103528499603263 1.7551764249801636,-6.1431174874305725 2.6327646374702454,-9.6534703373909 l0,0 c2.6327646374702454,-5.265529274940491 7.898293912410736,-8.775882124900818 14.041411399841309,-9.6534703373909 l0,0 c2.6327646374702454,-0.8775882124900822 7.020705699920654,-0.8775882124900822 13.163823187351227,-0.8775882124900822 l0,0 c7.020705699920654,0 11.408646762371063,0 14.041411399841309,0 l0,0 c2.6327646374702454,0 5.265529274940491,0.8775882124900822 7.020705699920654,0.8775882124900822 l0,0 c7.020705699920654,2.6327646374702454 11.408646762371063,7.898293912410736 11.408646762371063,15.796587824821472 l0,0 c0,1.7551764249801636 0,3.5103528499603263 0,7.020705699920654 l0,3.5103528499603263 l-14.91899961233139,0 l0,-3.5103528499603263 c0,-4.387941062450409 -0.8775882124900822,-7.898293912410736 -0.8775882124900822,-8.775882124900818 l0,0 c0,0 -0.8775882124900822,-0.8775882124900822 -3.5103528499603263,-1.7551764249801636 l0,0 c-2.6327646374702454,0 -7.020705699920654,0 -13.163823187351227,0 l0,0 c-5.265529274940491,0 -8.775882124900818,0 -11.408646762371063,0.8775882124900822 l0,0 c-1.7551764249801636,0.8775882124900822 -2.6327646374702454,0.8775882124900822 -2.6327646374702454,4.387941062450409 l0,0 c0,0.8775882124900822 -0.8775882124900822,7.898293912410736 -0.8775882124900822,17.551764249801636 l0,0 c0,7.898293912410736 0,13.163823187351227 0,14.041411399841309 l0,0 c0,3.5103528499603263 0.8775882124900822,5.265529274940491 0.8775882124900822,6.1431174874305725 l0,0 c0.8775882124900822,0.8775882124900822 0.8775882124900822,1.7551764249801636 2.6327646374702454,1.7551764249801636 l0,0 c1.7551764249801636,0.8775882124900822 7.020705699920654,0.8775882124900822 15.796587824821472,0.8775882124900822 l0,0 c4.387941062450409,0 7.898293912410736,0 9.6534703373909,-0.8775882124900822 l0,0 c1.7551764249801636,0 2.6327646374702454,-0.8775882124900822 2.6327646374702454,-0.8775882124900822 l0,0 c0,0 1.7551764249801636,-4.387941062450409 0.8775882124900822,-10.531058549880981 l0,0 c0,0 0,0 0,0 l-21.062117099761963,0 l0,-14.041411399841309 l35.98111671209335,0 l0,2.6327646374702454 c0,2.6327646374702454 0,5.265529274940491 0,7.898293912410736 l0,0 c0,5.265529274940491 0,8.775882124900818 0,10.531058549880981 l0,0 c0,8.775882124900818 -4.387941062450409,14.91899961233139 -11.408646762371063,18.429352462291718 l0,0 c-4.387941062450409,1.7551764249801636 -10.531058549880981,1.7551764249801636 -21.062117099761963,1.7551764249801636 l0,0 c-7.020705699920654,0 -12.286234974861145,0 -15.796587824821472,-0.8775882124900822 l0,0 z"
                  id="svg_5"/>
            <path class="fil0"
                  d="M377.3629199266434,347.52494645118713 c4.387941062450409,0 7.020705699920654,-0.8775882124900822 7.898293912410736,-1.7551764249801636 l0,0 c0.8775882124900822,-0.8775882124900822 1.7551764249801636,-1.7551764249801636 1.7551764249801636,-6.1431174874305725 l0,0 c0,-5.265529274940491 -0.8775882124900822,-9.6534703373909 -0.8775882124900822,-9.6534703373909 l0,0 c0,0 -2.6327646374702454,-1.7551764249801636 -7.020705699920654,-1.7551764249801636 l-21.939705312252045,0 l0,18.429352462291718 l19.3069406747818,0 l0,0 zm9.6534703373909,40.36905777454376 l0,-19.3069406747818 c0,-3.5103528499603263 -0.8775882124900822,-5.265529274940491 -1.7551764249801636,-6.1431174874305725 l0,0 c-0.8775882124900822,-0.8775882124900822 -3.5103528499603263,-1.7551764249801636 -6.1431174874305725,-1.7551764249801636 l0,0 c0,0 0,0 -0.8775882124900822,0 l-20.18452888727188,0 l0,26.327646374702454 l-14.91899961233139,0 l0,-72.83982163667679 l36.858704924583435,0 c6.1431174874305725,0 11.408646762371063,0.8775882124900822 14.91899961233139,3.5103528499603263 l0,0 c3.5103528499603263,1.7551764249801636 6.1431174874305725,5.265529274940491 7.020705699920654,9.6534703373909 l0,0 c0.8775882124900822,2.6327646374702454 0.8775882124900822,5.265529274940491 0.8775882124900822,9.6534703373909 l0,0 c0,6.1431174874305725 -0.8775882124900822,10.531058549880981 -2.6327646374702454,14.041411399841309 l0,0 c-0.8775882124900822,1.7551764249801636 -1.7551764249801636,2.6327646374702454 -2.6327646374702454,3.5103528499603263 l0,0 c3.5103528499603263,2.6327646374702454 4.387941062450409,7.020705699920654 4.387941062450409,12.286234974861145 l0,20.18452888727188 l-14.91899961233139,0 z"
                  id="svg_6"/>
            <polygon class="fil0"
                     points="409.8337287902832,387.89405727386475 409.8337287902832,315.05421352386475 461.6114387512207,315.05421352386475 461.6114387512207,329.09559535980225 424.7526741027832,329.09559535980225 424.7526741027832,343.13697719573975 459.8561897277832,343.13697719573975 459.8561897277832,357.17835903167725 424.7526741027832,357.17835903167725 424.7526741027832,373.85255336761475 461.6114387512207,373.85255336761475 461.6114387512207,387.89405727386475 409.8337287902832,387.89405727386475 "
                     id="svg_7"/>
            <path class="fil0"
                  d="M493.20456397533417,359.8111814260483 l18.429352462291718,0 l-8.775882124900818,-23.694881737232212 l-8.775882124900818,23.694881737232212 l0,0 zm40.36905777454376,28.082822799682617 l-11.408646762371063,0 l-5.265529274940491,-14.041411399841309 l-28.9604110121727,0 l-5.265529274940491,14.041411399841309 l-16.674176037311554,0 l28.082822799682617,-72.83982163667679 l15.796587824821472,0 l28.082822799682617,72.83982163667679 l-4.387941062450409,0 l0,0 z"
                  id="svg_8"/>
            <polygon class="fil0"
                     points="562.5340461730957,387.89405727386475 550.2477912902832,387.89405727386475 550.2477912902832,329.97315883636475 528.3080940246582,329.97315883636475 528.3080940246582,315.05421352386475 587.1065559387207,315.05421352386475 587.1065559387207,329.97315883636475 565.1667366027832,329.97315883636475 565.1667366027832,387.89405727386475 562.5340461730957,387.89405727386475 "
                     id="svg_9"/>
            <path class="fil0"
                  d="M645.0273247361183,387.8940042257309 c-3.5103528499603263,-0.8775882124900822 -7.020705699920654,-2.6327646374702454 -9.6534703373909,-4.387941062450409 l0,0 c-4.387941062450409,-3.5103528499603263 -6.1431174874305725,-9.6534703373909 -7.020705699920654,-15.796587824821472 l0,0 c0,-1.7551764249801636 0,-4.387941062450409 0,-7.020705699920654 l0,0 c0,-0.8775882124900822 0,-1.7551764249801636 0,-2.6327646374702454 l0,0 c0,-0.8775882124900822 0,-3.5103528499603263 0,-7.020705699920654 l0,0 c0,-0.8775882124900822 0,-1.7551764249801636 0,-2.6327646374702454 l0,0 c0,-6.1431174874305725 0,-10.531058549880981 0.8775882124900822,-14.041411399841309 l0,0 c0.8775882124900822,-3.5103528499603263 1.7551764249801636,-6.1431174874305725 2.6327646374702454,-9.6534703373909 l0,0 c2.6327646374702454,-5.265529274940491 7.898293912410736,-8.775882124900818 14.041411399841309,-9.6534703373909 l0,0 c2.6327646374702454,0 7.020705699920654,-0.8775882124900822 13.163823187351227,-0.8775882124900822 l0,0 c7.020705699920654,0 11.408646762371063,0 14.041411399841309,0 l0,0 c2.6327646374702454,0 5.265529274940491,0.8775882124900822 7.020705699920654,0.8775882124900822 l0,0 c7.020705699920654,2.6327646374702454 11.408646762371063,7.898293912410736 11.408646762371063,15.796587824821472 l0,0 c0,1.7551764249801636 0,3.5103528499603263 0,7.020705699920654 l0,3.5103528499603263 l-14.91899961233139,0 l0,-3.5103528499603263 c0,-4.387941062450409 -0.8775882124900822,-7.898293912410736 -0.8775882124900822,-8.775882124900818 l0,0 c0,0 -0.8775882124900822,-0.8775882124900822 -3.5103528499603263,-1.7551764249801636 l0,0 c-2.6327646374702454,0 -7.020705699920654,0 -13.163823187351227,0 l0,0 c-5.265529274940491,0 -8.775882124900818,0 -11.408646762371063,0.8775882124900822 l0,0 c-1.7551764249801636,0.8775882124900822 -2.6327646374702454,0.8775882124900822 -2.6327646374702454,4.387941062450409 l0,0 c0,0.8775882124900822 -0.8775882124900822,7.898293912410736 -0.8775882124900822,17.551764249801636 l0,0 c0,7.898293912410736 0,13.163823187351227 0,14.041411399841309 l0,0 c0,3.5103528499603263 0.8775882124900822,5.265529274940491 0.8775882124900822,6.1431174874305725 l0,0 c0.8775882124900822,0.8775882124900822 0.8775882124900822,1.7551764249801636 2.6327646374702454,1.7551764249801636 l0,0 c1.7551764249801636,0.8775882124900822 7.020705699920654,0.8775882124900822 15.796587824821472,0.8775882124900822 l0,0 c4.387941062450409,0 7.898293912410736,0 9.6534703373909,-0.8775882124900822 l0,0 c1.7551764249801636,0 2.6327646374702454,-0.8775882124900822 2.6327646374702454,-0.8775882124900822 l0,0 c0,0 1.7551764249801636,-4.387941062450409 0.8775882124900822,-10.531058549880981 l0,0 c0,0 0,0 0,0 l-21.062117099761963,0 l0,-14.041411399841309 l35.98111671209335,0 l0,2.6327646374702454 c0,2.6327646374702454 0,5.265529274940491 0,7.898293912410736 l0,0 c0,5.265529274940491 0,8.775882124900818 0,10.531058549880981 l0,0 c0,8.775882124900818 -4.387941062450409,14.91899961233139 -11.408646762371063,18.429352462291718 l0,0 c-3.5103528499603263,1.7551764249801636 -10.531058549880981,1.7551764249801636 -21.062117099761963,1.7551764249801636 l0,0 c-7.020705699920654,0 -12.286234974861145,0 -15.796587824821472,-0.8775882124900822 l0,0 z"
                  id="svg_10"/>
            <polygon class="fil0"
                     points="702.0705451965332,387.89405727386475 717.8671760559082,387.89405727386475 717.8671760559082,315.05421352386475 702.0705451965332,315.05421352386475 "
                     id="svg_11"/>
            <polygon class="fil0"
                     points="762.6241340637207,387.89405727386475 748.5827522277832,387.89405727386475 721.3775520324707,315.05421352386475 737.1740608215332,315.05421352386475 756.4810676574707,365.95423793792725 774.0328254699707,316.80934047698975 774.9103889465332,315.05421352386475 791.5845832824707,315.05421352386475 764.3792610168457,387.89405727386475 762.6241340637207,387.89405727386475 "
                     id="svg_12"/>
            <polygon class="fil0"
                     points="795.0949592590332,387.89405727386475 810.0139045715332,387.89405727386475 810.0139045715332,315.05421352386475 795.0949592590332,315.05421352386475 "
                     id="svg_13"/>
            <polygon class="fil0"
                     points="869.6899299621582,387.89405727386475 838.0967903137207,336.99391078948975 838.0967903137207,387.89405727386475 823.1777229309082,387.89405727386475 823.1777229309082,315.05421352386475 840.7294807434082,315.05421352386475 873.2001838684082,365.95423793792725 873.2001838684082,315.05421352386475 888.1193733215332,315.05421352386475 888.1193733215332,387.89405727386475 "
                     id="svg_14"/>
            <path class="fil0"
                  d="M914.4469059705734,387.8940042257309 c-3.5103528499603263,-0.8775882124900822 -7.020705699920654,-2.6327646374702454 -9.6534703373909,-4.387941062450409 l0,0 c-4.387941062450409,-3.5103528499603263 -6.1431174874305725,-9.6534703373909 -7.020705699920654,-15.796587824821472 l0,0 c0,-1.7551764249801636 0,-4.387941062450409 0,-7.020705699920654 l0,0 c0,-0.8775882124900822 0,-1.7551764249801636 0,-2.6327646374702454 l0,0 c0,-0.8775882124900822 0,-3.5103528499603263 0,-7.020705699920654 l0,0 c0,-0.8775882124900822 0,-1.7551764249801636 0,-2.6327646374702454 l0,0 c0,-6.1431174874305725 0,-10.531058549880981 0.8775882124900822,-14.041411399841309 l0,0 c0.8775882124900822,-3.5103528499603263 1.7551764249801636,-6.1431174874305725 2.6327646374702454,-9.6534703373909 l0,0 c2.6327646374702454,-5.265529274940491 7.898293912410736,-8.775882124900818 14.041411399841309,-9.6534703373909 l0,0 c2.6327646374702454,0 7.020705699920654,-0.8775882124900822 13.163823187351227,-0.8775882124900822 l0,0 c7.020705699920654,0 11.408646762371063,0 14.041411399841309,0 l0,0 c2.6327646374702454,0 5.265529274940491,0.8775882124900822 7.020705699920654,0.8775882124900822 l0,0 c7.020705699920654,2.6327646374702454 11.408646762371063,7.898293912410736 11.408646762371063,15.796587824821472 l0,0 c0,1.7551764249801636 0,3.5103528499603263 0,7.020705699920654 l0,3.5103528499603263 l-14.91899961233139,0 l0,-3.5103528499603263 c0,-4.387941062450409 -0.8775882124900822,-7.898293912410736 -0.8775882124900822,-8.775882124900818 l0,0 c0,0 -0.8775882124900822,-0.8775882124900822 -3.5103528499603263,-1.7551764249801636 l0,0 c-2.6327646374702454,0 -7.020705699920654,0 -13.163823187351227,0 l0,0 c-5.265529274940491,0 -8.775882124900818,0 -11.408646762371063,0.8775882124900822 l0,0 c-1.7551764249801636,0.8775882124900822 -2.6327646374702454,0.8775882124900822 -2.6327646374702454,4.387941062450409 l0,0 c0,0.8775882124900822 -0.8775882124900822,7.898293912410736 -0.8775882124900822,17.551764249801636 l0,0 c0,7.898293912410736 0,13.163823187351227 0,14.041411399841309 l0,0 c0,3.5103528499603263 0.8775882124900822,5.265529274940491 0.8775882124900822,6.1431174874305725 l0,0 c0.8775882124900822,0.8775882124900822 0.8775882124900822,1.7551764249801636 2.6327646374702454,1.7551764249801636 l0,0 c1.7551764249801636,0.8775882124900822 7.020705699920654,0.8775882124900822 15.796587824821472,0.8775882124900822 l0,0 c4.387941062450409,0 7.898293912410736,0 9.6534703373909,-0.8775882124900822 l0,0 c1.7551764249801636,0 2.6327646374702454,-0.8775882124900822 2.6327646374702454,-0.8775882124900822 l0,0 c0,0 1.7551764249801636,-4.387941062450409 0.8775882124900822,-10.531058549880981 l0,0 c0,0 0,0 0,0 l-21.062117099761963,0 l0,-14.041411399841309 l35.98111671209335,0 l0,2.6327646374702454 c0,2.6327646374702454 0,5.265529274940491 0,7.898293912410736 l0,0 c0,5.265529274940491 0,8.775882124900818 0,10.531058549880981 l0,0 c0,8.775882124900818 -4.387941062450409,14.91899961233139 -11.408646762371063,18.429352462291718 l0,0 c-3.5103528499603263,1.7551764249801636 -10.531058549880981,1.7551764249801636 -21.062117099761963,1.7551764249801636 l0,0 c-7.020705699920654,0 -12.286234974861145,0 -15.796587824821472,-0.8775882124900822 l0,0 z"
                  id="svg_15"/>
            <path class="fil1"
                  d="M119.35198545455933,132.5158343911171 l121.98476153612137,0 l0.8775882124900822,54.41046917438507 c0,40.36905777454376 -7.898293912410736,65.81911593675613 -22.817293524742126,77.2277626991272 c-14.91899961233139,11.408646762371063 -48.2673516869545,17.551764249801636 -100.9226444363594,17.551764249801636 c-47.38976347446442,0 -79.86052733659744,-7.898293912410736 -94.77952694892883,-22.817293524742126 c-15.796587824821472,-15.796587824821472 -23.694881737232212,-46.512175261974335 -23.694881737232212,-93.90193873643875 c0,-60.55358666181564 3.5103528499603263,-98.28987979888916 9.6534703373909,-114.96405583620071 c7.898293912410736,-19.3069406747818 19.3069406747818,-32.470763862133026 35.10352849960327,-39.49146956205368 c15.796587824821472,-7.020705699920654 42.124234199523926,-10.531058549880981 79.86052733659744,-10.531058549880981 c49.14493989944458,0 80.73811554908752,5.265529274940491 94.77952694892883,15.796587824821472 c14.041411399841309,10.531058549880981 21.062117099761963,33.34835207462311 21.062117099761963,69.32946878671646 l-52.65529274940491,0 c-0.8775882124900822,-18.429352462291718 -5.265529274940491,-28.9604110121727 -11.408646762371063,-33.34835207462311 c-7.020705699920654,-4.387941062450409 -24.57246994972229,-6.1431174874305725 -52.65529274940491,-6.1431174874305725 c-30.715587437152863,0 -50.02252811193466,3.5103528499603263 -57.9208220243454,11.408646762371063 c-7.898293912410736,7.898293912410736 -12.286234974861145,25.450058162212372 -12.286234974861145,53.53288096189499 l0,28.082822799682617 l0,35.10352849960327 c0,27.205234587192535 4.387941062450409,44.75699883699417 12.286234974861145,52.65529274940491 c7.898293912410736,7.898293912410736 27.205234587192535,11.408646762371063 56.165645599365234,11.408646762371063 c28.9604110121727,0 46.512175261974335,-3.5103528499603263 54.41046917438507,-9.6534703373909 c7.898293912410736,-6.1431174874305725 11.408646762371063,-21.062117099761963 11.408646762371063,-44.75699883699417 l0,-11.408646762371063 l-69.32946878671646,0 l0,-38.6138813495636 z"
                  id="svg_16"/>
            <polygon class="fil1"
                     points="320.3196907043457,279.07301235198975 372.9749641418457,279.07301235198975 372.9749641418457,2.632765769958496 320.3196907043457,2.632765769958496 "
                     id="svg_17"/>
            <path class="fil1"
                  d="M640.6393836736679,2.6327789425849915 l55.28805738687515,0 l-88.63640946149826,276.44028693437576 l-80.73811554908752,0 l-88.63640946149826,-276.44028693437576 l54.41046917438507,0 l51.777704536914825,156.21070182323456 c5.265529274940491,14.91899961233139 12.286234974861145,40.36905777454376 21.939705312252045,75.47258627414703 l1.7551764249801636,0 l5.265529274940491,-18.429352462291718 c6.1431174874305725,-23.694881737232212 12.286234974861145,-42.124234199523926 16.674176037311554,-56.165645599365234 l50.900116324424744,-157.08829003572464 z"
                  id="svg_18"/>
            <path class="fil2"
                  d="M753.8482630848885,279.07306587696075 l0,-46.512175261974335 l92.14676231145859,0 c48.2673516869545,0 64.06393951177597,3.5103528499603263 64.06393951177597,-34.22594028711319 c0,-28.9604110121727 -7.898293912410736,-35.98111671209335 -39.49146956205368,-35.98111671209335 l-115.8416440486908,0 l0,-48.2673516869545 l115.8416440486908,0 c29.83799922466278,0 34.22594028711319,-3.5103528499603263 34.22594028711319,-35.98111671209335 c0,-26.327646374702454 -13.163823187351227,-28.082822799682617 -58.79841023683548,-28.082822799682617 l-92.14676231145859,-0.8775882124900822 l0,-46.512175261974335 l92.14676231145859,0 c56.165645599365234,0 112.33129119873047,0 112.33129119873047,71.08464521169662 c0,32.470763862133026 -7.020705699920654,59.67599844932556 -46.512175261974335,64.06393951177597 l0,1.7551764249801636 c40.36905777454376,2.6327646374702454 50.900116324424744,23.694881737232212 50.900116324424744,59.67599844932556 c0,75.47258627414703 -42.124234199523926,81.6157037615776 -116.71923226118088,81.6157037615776 l-92.14676231145859,-0.8775882124900822 z"
                  id="svg_19"/></g></g></svg>